<svg id="Layer_1" data-name="Layer 1" xmlns="http://www.w3.org/2000/svg" viewBox="0 0 239.98 43.28">
<defs>
    <style>.cls-1 {
            fill: #f18825;
        }

        .cls-2 {
            fill: #0063B5;
        }</style>
</defs>
<path class="cls-1" d="M53.88,8.45L38.25,18.21V27l-7.47-4.14L10,35.82a1.31,1.31,0,0,1-2-1.11v-13l-7.5-4.65V34.71a8.7,8.7,0,0,0,4.53,7.7A8.72,8.72,0,0,0,14,42.18L61,12.85Z" transform="translate(-0.53 -0.39)"></path>
<path class="cls-2" d="M34,1.37C31.2-.16,27.66.11,24.48,2.1L2.77,15.68,0.53,17.05,8,21.71l20.78-13a1.17,1.17,0,0,1,1.27,0,1.28,1.28,0,0,1,.67,1.14V22.86L38.25,27V9.78C38.25,5.94,36.69,2.87,34,1.37Z" transform="translate(-0.53 -0.39)"></path>
<path class="cls-2" d="M76.27,13.14a7.51,7.51,0,0,0-5.77,2.11l0.17-1.56H66.25L63,43.19H67.4l1.08-9.71a5.65,5.65,0,0,0,4.38,2.14v0h1C79.8,35.67,83.21,32,84,24.73l0-.2,0-.35c0.45-4.09-.13-7-1.77-8.81C81,13.89,78.95,13.14,76.27,13.14ZM79.5,24.27c-0.61,5.52-2.12,7.4-6,7.45a4.06,4.06,0,0,1-3.14-1.13c-0.95-1.07-1.23-3-.9-6.14,0.64-5.38,2.24-7.38,5.91-7.38a4.18,4.18,0,0,1,3.28,1.11C79.59,19.22,79.85,21.1,79.5,24.27Z" transform="translate(-0.53 -0.39)"></path>
<path class="cls-2" d="M97.61,13.14c-6.12,0-8.87,2-9.83,7l-0.11.56h4.38l0.1-.33c0.68-2.2,1-3.41,5-3.41,1.81,0,2.94.27,3.44,0.84a2.87,2.87,0,0,1,.37,2.3l-0.23,2.07a30.36,30.36,0,0,0-8.85.62A7.45,7.45,0,0,0,86,29.59a5.29,5.29,0,0,0,1.06,4.28c1.08,1.21,2.88,1.8,5.49,1.8a10.83,10.83,0,0,0,6.92-2.14l-0.18,1.63h4.42l1.75-15.78a5.28,5.28,0,0,0-1.06-4.27C103.18,13.76,101,13.14,97.61,13.14Zm2.58,13.77c-0.37,3.34-2.41,4.9-6.42,4.9-1.48,0-2.38-.23-2.81-0.71a2.31,2.31,0,0,1-.36-1.84c0.22-2,1.25-2.75,4.4-3.17,0,0,2.7-.32,5.33-0.34Z" transform="translate(-0.53 -0.39)"></path>
<path class="cls-2" d="M123.45,15.31c-1.07-1.25-2.5-2.17-5.48-2.17-5.93,0-9.34,3.67-10.14,10.9-0.47,4.2.18,7.32,1.93,9.26a7.93,7.93,0,0,0,6.2,2.35,16.56,16.56,0,0,0,5.33-.94c-0.45,3.3-1.22,5-6.11,5-2.46,0-3.52-.38-3.67-2.75l0-.44h-4.37V37a6.34,6.34,0,0,0,1.54,4.78c1.26,1.28,3.27,1.88,6.32,1.88,9,0,10.33-5.19,11-11l2.11-19h-4.42Zm-1.81,2.85c0.92,1,1.17,2.91.81,6.11l-0.68,6.09a12.57,12.57,0,0,1-5.07,1.11c-1.79,0-2.94-.35-3.61-1.1-0.87-1-1.09-2.79-.73-6,0.52-4.71,1.62-7.26,5.94-7.26A4.22,4.22,0,0,1,121.65,18.16Z" transform="translate(-0.53 -0.39)"></path>
<path class="cls-2" d="M145.72,13.69l-0.18,1.62c-1.07-1.25-2.5-2.17-5.48-2.17-5.93,0-9.34,3.67-10.14,10.9-0.47,4.2.18,7.32,1.93,9.26a7.93,7.93,0,0,0,6.2,2.35,16.56,16.56,0,0,0,5.33-.94c-0.45,3.3-1.22,5-6.11,5-2.46,0-3.52-.38-3.67-2.75l0-.44H129.2V37a6.34,6.34,0,0,0,1.54,4.78c1.26,1.28,3.27,1.88,6.32,1.88,9,0,10.33-5.19,11-11l2.11-19h-4.42Zm-1.17,10.58-0.68,6.09a12.58,12.58,0,0,1-5.07,1.11c-1.79,0-2.94-.35-3.61-1.1-0.87-1-1.09-2.78-.73-6,0.52-4.71,1.62-7.26,5.94-7.26a4.22,4.22,0,0,1,3.34,1.09C144.65,19.19,144.9,21.07,144.55,24.27Z" transform="translate(-0.53 -0.39)"></path>
<path class="cls-1" d="M162.78,13.14c-4.49,0-9.78,1.29-10.9,11.37-0.48,4.33,0,7.18,1.65,9,1.34,1.49,3.41,2.22,6.34,2.22,3.74,0,8.23-.92,9.87-8.13l0.13-.58h-4.42l-0.09.36c-1,3.77-2.28,4.41-4.88,4.41-1.68,0-2.76-.33-3.38-1-0.84-.94-1-2.71-0.66-6.1,0.66-5.95,2-7.58,6-7.58,2.6,0,3.54.56,3.63,3.72v0.46h4.39V20.78c0-2.7-.56-4.53-1.8-5.78S165.52,13.14,162.78,13.14Z" transform="translate(-0.53 -0.39)"></path>
<path class="cls-1" d="M184.19,13.14c-6.78,0-10.49,3.78-11.36,11.57-0.44,4,.11,6.78,1.69,8.54s3.78,2.42,7.11,2.42c5.79,0,9.24-2.43,10.24-7.23l0.12-.57h-4.46l-0.09.36c-0.62,2.58-2,3.5-5.21,3.5-2,0-3.28-.37-4-1.16s-1.08-2.29-.93-4.63h15l0-.42c0.55-5,0-8.2-1.71-10.12C189.29,13.88,187.17,13.14,184.19,13.14Zm-6.37,8.94c0.92-4.21,2.77-5,6-5a4.6,4.6,0,0,1,3.42,1c0.72,0.74,1,1.91,1,4h-10.4Z" transform="translate(-0.53 -0.39)"></path>
<path class="cls-1" d="M205.88,13.22a6.36,6.36,0,0,0-4.93,2l0.16-1.48h-4.18l-2.38,21.47H199l1.33-12c0.43-3.87,1.83-5.45,4.83-5.45a5.67,5.67,0,0,1,1.7.21l0.56,0.21,0.51-4.59-0.34-.13A5.13,5.13,0,0,0,205.88,13.22Z" transform="translate(-0.53 -0.39)"></path>
<path class="cls-1" d="M215.94,8.17h-4.42l-2.46,22.2c-0.23,2.11,0,3.28.65,4.06s1.68,1,3.37,1a28.94,28.94,0,0,0,3.82-.37l0.35-.06,0.43-3.87-0.6.08c-0.74.1-2,.24-2.25,0.24a2.66,2.66,0,0,1-1.3-.19,1.1,1.1,0,0,1-.07-0.78l1.44-13h4.29l0.43-3.86h-4.29Z" transform="translate(-0.53 -0.39)"></path>
<path class="cls-1" d="M238.48,15.68c-1.51-1.68-3.86-2.54-7-2.54-6.61,0-10.38,3.79-11.2,11.25-0.44,4,.16,6.86,1.84,8.74,1.49,1.66,3.83,2.5,7,2.5,6.66,0,10.45-3.75,11.27-11.13C240.82,20.54,240.18,17.57,238.48,15.68Zm-2.66,8.64c-0.58,5.24-2.42,7.38-6.34,7.38a4.68,4.68,0,0,1-3.67-1.24c-1-1.09-1.28-3-.95-6,0.58-5.24,2.42-7.38,6.34-7.38a4.66,4.66,0,0,1,3.66,1.25C235.85,19.42,236.15,21.33,235.82,24.31Z" transform="translate(-0.53 -0.39)"></path>
</svg>